<svg width="32" height="32" viewBox="0 0 32 32" fill="none" xmlns="http://www.w3.org/2000/svg">
<path d="M18.2177 2.06083C18.0726 1.94289 17.8814 1.8978 17.6989 1.93847L1.78936 5.6099C1.50935 5.67427 1.31178 5.92473 1.31448 6.21202V27.0168C1.3146 27.3187 1.53494 27.5755 1.83336 27.6214L17.7429 30.069C18.0769 30.1204 18.3893 29.8912 18.4407 29.5573C18.4454 29.5266 18.4478 29.4955 18.4478 29.4645V2.54059C18.4484 2.35397 18.3636 2.17734 18.2177 2.06083Z" fill="#4CAF50"/>
<path d="M30.0747 27.6286H17.8365C17.4986 27.6286 17.2246 27.3546 17.2246 27.0167C17.2246 26.6787 17.4986 26.4047 17.8365 26.4047H29.4627V5.60001H17.8365C17.4986 5.60001 17.2246 5.32603 17.2246 4.98809C17.2246 4.65014 17.4986 4.37622 17.8365 4.37622H30.0746C30.4126 4.37622 30.6865 4.6502 30.6865 4.98814V27.0167C30.6865 27.3547 30.4126 27.6286 30.0747 27.6286Z" fill="#4CAF50"/>
<path d="M12.9408 21.5104C12.7298 21.5104 12.5337 21.4017 12.4219 21.2228L6.30282 11.4323C6.11472 11.1515 6.18987 10.7714 6.47062 10.5833C6.75137 10.3952 7.13147 10.4704 7.31958 10.7511C7.32698 10.7621 7.33398 10.7734 7.34063 10.7849L13.4597 20.5754C13.6381 20.8624 13.5501 21.2397 13.2631 21.4181C13.1663 21.4783 13.0547 21.5102 12.9408 21.5104Z" fill="#FAFAFA"/>
<path d="M6.8216 21.5098C6.48366 21.5091 6.21025 21.2346 6.21094 20.8967C6.21117 20.7824 6.24341 20.6705 6.30393 20.5736L12.423 10.7831C12.5925 10.4907 12.9669 10.391 13.2592 10.5605C13.5516 10.73 13.6513 11.1044 13.4818 11.3967C13.4751 11.4082 13.4682 11.4194 13.4607 11.4305L7.34174 21.221C7.22999 21.4007 7.03328 21.51 6.8216 21.5098Z" fill="#FAFAFA"/>
<path d="M22.7311 27.6288C22.3931 27.6288 22.1191 27.3548 22.1191 27.0168V4.98827C22.1191 4.65032 22.3931 4.37634 22.7311 4.37634C23.069 4.37634 23.343 4.65032 23.343 4.98827V27.0168C23.3429 27.3548 23.069 27.6288 22.7311 27.6288Z" fill="#4CAF50"/>
<path d="M30.0747 23.9574H17.8365C17.4986 23.9574 17.2246 23.6834 17.2246 23.3454C17.2246 23.0075 17.4986 22.7335 17.8365 22.7335H30.0746C30.4126 22.7335 30.6865 23.0075 30.6865 23.3454C30.6865 23.6834 30.4126 23.9574 30.0747 23.9574Z" fill="#4CAF50"/>
<path d="M30.0747 20.2859H17.8365C17.4986 20.2859 17.2246 20.0119 17.2246 19.6739C17.2246 19.336 17.4986 19.062 17.8365 19.062H30.0746C30.4126 19.062 30.6865 19.336 30.6865 19.6739C30.6865 20.0119 30.4126 20.2859 30.0747 20.2859Z" fill="#4CAF50"/>
<path d="M30.0747 16.6145H17.8365C17.4986 16.6145 17.2246 16.3405 17.2246 16.0025C17.2246 15.6646 17.4986 15.3906 17.8365 15.3906H30.0746C30.4126 15.3906 30.6865 15.6646 30.6865 16.0025C30.6865 16.3405 30.4126 16.6145 30.0747 16.6145Z" fill="#4CAF50"/>
<path d="M30.0747 12.9431H17.8365C17.4986 12.9431 17.2246 12.6691 17.2246 12.3312C17.2246 11.9932 17.4986 11.7192 17.8365 11.7192H30.0746C30.4126 11.7192 30.6865 11.9932 30.6865 12.3312C30.6865 12.6691 30.4126 12.9431 30.0747 12.9431Z" fill="#4CAF50"/>
<path d="M30.0747 9.27158H17.8365C17.4986 9.27158 17.2246 8.9976 17.2246 8.65965C17.2246 8.32171 17.4986 8.04773 17.8365 8.04773H30.0746C30.4126 8.04773 30.6865 8.32171 30.6865 8.65965C30.6865 8.99765 30.4126 9.27158 30.0747 9.27158Z" fill="#4CAF50"/>
</svg>
