<svg width="148" height="179" viewBox="0 0 148 179" fill="none" xmlns="http://www.w3.org/2000/svg">
<path d="M100.06 62.413C99.9717 63.8823 99.8003 65.2292 99.6093 66.625C99.4183 68.0209 99.1587 69.3873 98.8648 70.7587C98.2919 73.5343 97.4639 76.251 96.3915 78.8743L95.9458 79.8538L95.838 80.0987L95.7988 80.226L95.7205 80.3828C95.5707 80.6902 95.3814 80.9767 95.1572 81.235C94.8902 81.5354 94.5718 81.7858 94.2169 81.9745C93.8685 82.1573 93.4904 82.2767 93.1002 82.3272C92.5011 82.3912 91.8952 82.3278 91.3223 82.1411C90.5107 81.864 89.7449 81.4678 89.0498 80.9656C88.4418 80.5369 87.8611 80.0707 87.3111 79.5697C85.2497 77.6583 83.3947 75.5358 81.7766 73.237L83.3978 71.8607C84.3773 72.7668 85.3569 73.6827 86.3364 74.5496C87.3103 75.4163 88.327 76.2336 89.3828 76.9984C89.8798 77.3539 90.3965 77.681 90.9305 77.978C91.3609 78.2391 91.8258 78.4386 92.3117 78.5706C92.4782 78.6049 92.5957 78.5706 92.5418 78.5706C92.4264 78.5834 92.3181 78.6333 92.2333 78.7126C92.2039 78.7126 92.2039 78.7126 92.2333 78.7126L92.39 78.3061L92.7329 77.4147C93.5825 74.9606 94.2456 72.4458 94.7164 69.8918C94.976 68.6086 95.1572 67.3009 95.3531 66.003C95.5491 64.7051 95.6862 63.368 95.7988 62.1289L100.06 62.413Z" fill="#FFC3BD"/>
<path d="M97.0915 57.0207C95.2646 57.486 93.9863 64.9992 93.9863 64.9992L99.0163 68.4276C99.0163 68.4276 103.841 60.8508 102.445 58.8427C100.975 56.7416 99.7559 56.3449 97.0915 57.0207Z" fill="#407BFF"/>
<path d="M97.0915 57.0207C95.2646 57.486 93.9863 64.9992 93.9863 64.9992L99.0163 68.4276C99.0163 68.4276 103.841 60.8508 102.445 58.8427C100.975 56.7416 99.7559 56.3449 97.0915 57.0207Z" fill="#407BFF"/>
<path opacity="0.4" d="M97.0915 57.0207C95.2646 57.486 93.9863 64.9992 93.9863 64.9992L99.0163 68.4276C99.0163 68.4276 103.841 60.8508 102.445 58.8427C100.975 56.7416 99.7559 56.3449 97.0915 57.0207Z" fill="black"/>
<path opacity="0.3" d="M97.2538 58.7012L95.853 66.2682L98.679 68.1881L97.2538 58.7012Z" fill="black"/>
<path d="M83.4816 71.5525L81.1062 67.7715L79.7495 72.0668C79.7495 72.0668 81.7086 74.1238 83.4865 73.6341L83.4816 71.5525Z" fill="#FFC3BD"/>
<path d="M77.5785 66.5215L76.6382 70.1752L79.7287 72.0657L81.0853 67.7704L77.5785 66.5215Z" fill="#FFC3BD"/>
<path d="M106.691 173.5H102.264L101.965 163.244H106.397L106.691 173.5Z" fill="#FFC3BD"/>
<path d="M144.591 160.434L141.216 163.304L133.493 156.408L136.867 153.543L144.591 160.434Z" fill="#FFC3BD"/>
<path d="M140.292 162.959L143.568 159.208C143.624 159.143 143.702 159.101 143.787 159.089C143.871 159.078 143.957 159.097 144.029 159.144L147.364 161.304C147.446 161.361 147.516 161.435 147.567 161.521C147.619 161.607 147.652 161.702 147.664 161.802C147.676 161.901 147.667 162.002 147.637 162.098C147.607 162.193 147.558 162.282 147.492 162.357C146.326 163.645 145.699 164.208 144.259 165.854C143.377 166.868 142.187 168.445 140.963 169.841C139.738 171.236 138.289 170.11 138.676 169.414C140.395 166.309 139.983 165.222 140.013 163.694C140.017 163.424 140.116 163.164 140.292 162.959Z" fill="#263238"/>
<path d="M102.111 172.99H107.087C107.173 172.989 107.256 173.02 107.321 173.076C107.386 173.132 107.428 173.209 107.44 173.294L108.008 177.212C108.024 177.316 108.017 177.421 107.987 177.522C107.957 177.622 107.906 177.715 107.836 177.793C107.766 177.871 107.68 177.933 107.584 177.974C107.487 178.015 107.383 178.034 107.278 178.03C105.545 178.001 104.707 177.898 102.518 177.898C101.171 177.898 98.3889 178.04 96.5278 178.04C94.6666 178.04 94.5687 176.198 95.3474 176.037C98.815 175.287 100.181 174.259 101.352 173.274C101.563 173.091 101.832 172.99 102.111 172.99Z" fill="#263238"/>
<path opacity="0.2" d="M101.969 163.248L102.121 168.533H106.548L106.396 163.248H101.969Z" fill="black"/>
<path opacity="0.2" d="M136.872 153.543L133.493 156.408L137.479 159.964L140.854 157.094L136.872 153.543Z" fill="black"/>
<path d="M97.0913 57.0199C97.0913 57.0199 94.9804 57.7643 99.2071 83.7517H117.192C116.893 76.4296 116.883 71.9139 120.38 56.8925C117.862 56.3734 115.311 56.0362 112.745 55.8836C110.025 55.6898 107.295 55.6898 104.575 55.8836C101.068 56.2265 97.0913 57.0199 97.0913 57.0199Z" fill="#407BFF"/>
<path opacity="0.4" d="M97.0913 57.0199C97.0913 57.0199 94.9804 57.7643 99.2071 83.7517H117.192C116.893 76.4296 116.883 71.9139 120.38 56.8925C117.862 56.3734 115.311 56.0362 112.745 55.8836C110.025 55.6898 107.295 55.6898 104.575 55.8836C101.068 56.2265 97.0913 57.0199 97.0913 57.0199Z" fill="black"/>
<path d="M112.744 55.8836C110.025 55.6898 107.295 55.6898 104.575 55.8836C104.134 55.9228 103.683 55.9718 103.238 56.0256C103.053 56.304 102.935 56.621 102.893 56.9522C102.85 57.2834 102.885 57.6199 102.993 57.9358C103.566 59.361 105.633 59.5275 107.141 59.5275C112.71 59.5275 113.65 56.2754 113.69 56.1383L113.743 55.9424C113.43 55.9228 113.077 55.8983 112.744 55.8836Z" fill="white"/>
<path d="M111.962 46.6914C111.442 49.3166 110.933 54.1311 112.77 55.8845C112.77 55.8845 112.05 58.5537 107.167 58.5537C101.779 58.5537 104.6 55.8894 104.6 55.8894C107.539 55.189 107.456 53.0144 106.946 50.9916L111.962 46.6914Z" fill="#FFC3BD"/>
<path opacity="0.2" d="M109.888 48.4336L106.92 50.9657C107.047 51.4471 107.133 51.9388 107.174 52.435C108.291 52.2734 109.829 51.0441 109.951 49.8735C110.02 49.3938 109.998 48.9054 109.888 48.4336Z" fill="black"/>
<path d="M108.88 32.4005C108.425 30.8577 108.043 28.4284 110.785 27.3313C109.713 26.0187 109.453 23.5502 110.785 22.0858C112.118 20.6214 114.116 21.1601 114.116 21.1601C114.116 21.1601 114.704 17.5799 119.058 18.2215C123.412 18.8631 121.472 21.7283 121.472 21.7283C121.472 21.7283 127.413 20.5528 127.81 26.1362C128.207 31.7197 124.798 31.034 124.798 31.034C124.798 31.034 127.447 33.2576 125.978 35.7015C124.509 38.1455 121.115 37.3031 121.115 37.3031C121.115 37.3031 119.518 41.6229 115.757 39.1642C111.995 36.7056 108.88 32.4005 108.88 32.4005Z" fill="#263238"/>
<path d="M100.06 35.6569C98.5908 37.5572 99.2373 39.7073 100.55 40.5546C103.709 42.5725 108.279 34.1092 107.088 33.0954C105.898 32.0815 101.529 33.7517 100.06 35.6569Z" fill="#263238"/>
<path d="M113.326 31.1304C111.25 30.2929 109.144 31.1696 108.487 32.4332C106.886 35.5139 114.159 41.063 116.265 37.2134C117.514 34.9262 115.467 31.9924 113.326 31.1304Z" fill="#407BFF"/>
<path d="M112.45 40.5532C112.602 44.9612 112.759 46.8027 110.765 49.2565C107.773 52.9445 102.341 52.1706 100.882 47.9096C99.5689 44.0747 99.5444 37.5362 103.654 35.391C104.557 34.9132 105.567 34.6742 106.589 34.6968C107.611 34.7193 108.61 35.0027 109.491 35.5199C110.372 36.0371 111.107 36.771 111.625 37.652C112.143 38.5329 112.427 39.5316 112.45 40.5532Z" fill="#FFC3BD"/>
<path d="M111.79 42.861C109.831 42.1313 109.342 39.844 109.655 38.9428C108.675 38.9036 106.535 38.551 105.737 37.3364C104.209 38.3159 100.981 39.2955 100.633 37.6645C100.286 36.0336 105.154 31.8411 108.837 31.5179C113.216 31.1358 117.535 35.436 116.424 39.555C115.312 43.674 111.79 42.861 111.79 42.861Z" fill="#263238"/>
<path d="M99.2415 83.8281C99.2415 83.8281 95.7164 113.543 96.0081 125.309C96.3146 137.544 101.511 165.45 101.511 165.45H107.552C107.552 165.45 106.598 138.257 107.132 126.243C107.716 113.141 112.536 83.8281 112.536 83.8281H99.2415Z" fill="#263238"/>
<path d="M107.683 167.725H100.66L100.141 165.487L108.012 165.213L107.683 167.725Z" fill="#407BFF"/>
<path opacity="0.2" d="M106.965 92.2408C102.557 101.125 106.079 117.337 107.641 123.371C108.439 114.31 109.791 103.236 110.844 95.106C110.178 90.5119 109.022 88.1414 106.965 92.2408Z" fill="black"/>
<path d="M103.712 83.8375C103.712 83.8375 107.605 117.69 110.543 128.56C114.034 141.464 135.712 158.832 135.712 158.832L140.111 155.092C140.111 155.092 124.398 136.223 121.727 129.425C116.032 114.932 120.908 93.2954 116.355 83.8281L103.712 83.8375Z" fill="#263238"/>
<path d="M141.339 155.756L135.628 160.604L133.493 159.326L139.953 153.316L141.339 155.756Z" fill="#407BFF"/>
<path d="M105.931 42.3965C105.965 42.754 105.804 43.0576 105.573 43.0821C105.343 43.1066 105.123 42.8324 105.084 42.4797C105.044 42.1271 105.211 41.8136 105.446 41.794C105.681 41.7745 105.897 42.0242 105.931 42.3965Z" fill="#263238"/>
<path d="M101.916 42.7831C101.95 43.1358 101.789 43.4443 101.554 43.4688C101.319 43.4933 101.108 43.219 101.064 42.8615C101.02 42.504 101.191 42.2003 101.421 42.1807C101.652 42.1611 101.882 42.4256 101.916 42.7831Z" fill="#263238"/>
<path d="M101.534 42.19L100.657 42.0234C100.657 42.0234 101.186 42.6503 101.534 42.19Z" fill="#263238"/>
<path d="M103.032 43.291C102.794 44.1319 102.441 44.9361 101.984 45.6811C102.178 45.7929 102.395 45.8612 102.618 45.8815C102.841 45.9018 103.066 45.8735 103.277 45.7987L103.032 43.291Z" fill="#ED847E"/>
<path d="M105.251 46.9697C105.057 47.0228 104.859 47.0588 104.659 47.0774C104.645 47.0788 104.632 47.0774 104.619 47.0735C104.606 47.0695 104.594 47.063 104.583 47.0544C104.573 47.0457 104.564 47.0351 104.558 47.0231C104.551 47.011 104.547 46.9979 104.546 46.9844C104.543 46.9565 104.552 46.9287 104.569 46.9068C104.586 46.8848 104.612 46.8705 104.639 46.8668C105.083 46.8342 105.512 46.698 105.893 46.4692C106.274 46.2404 106.596 45.9253 106.833 45.5493C106.839 45.5364 106.847 45.5248 106.858 45.5153C106.868 45.5059 106.881 45.4988 106.894 45.4946C106.908 45.4904 106.922 45.4892 106.936 45.4911C106.95 45.4929 106.964 45.4977 106.975 45.5053C107 45.5187 107.018 45.541 107.026 45.5674C107.034 45.5939 107.032 45.6225 107.02 45.6473C106.624 46.3011 105.99 46.7755 105.251 46.9697Z" fill="#263238"/>
<path d="M113.479 43.5952C113.371 44.438 112.935 45.2041 112.264 45.7257C111.368 46.4114 110.506 45.7257 110.403 44.6531C110.315 43.6736 110.667 42.2043 111.735 41.9202C111.968 41.8727 112.209 41.8825 112.437 41.9487C112.666 42.015 112.875 42.1356 113.046 42.3004C113.218 42.4651 113.347 42.669 113.422 42.8945C113.497 43.12 113.517 43.3605 113.479 43.5952Z" fill="#FFC3BD"/>
<path d="M106.363 39.8781C106.336 39.885 106.308 39.8863 106.28 39.8821C106.252 39.8779 106.226 39.8682 106.202 39.8536C105.98 39.7119 105.727 39.6247 105.465 39.5991C105.203 39.5736 104.938 39.6104 104.693 39.7066C104.642 39.7293 104.585 39.7318 104.532 39.7136C104.479 39.6954 104.435 39.6579 104.409 39.6087C104.385 39.5586 104.382 39.5012 104.401 39.449C104.419 39.3967 104.457 39.3538 104.507 39.3295C104.815 39.2021 105.15 39.1508 105.482 39.1797C105.815 39.2087 106.135 39.3172 106.417 39.496C106.44 39.5101 106.461 39.5286 106.477 39.5506C106.493 39.5725 106.504 39.5974 106.511 39.6238C106.517 39.6502 106.518 39.6776 106.514 39.7044C106.51 39.7313 106.5 39.757 106.486 39.7801C106.459 39.827 106.415 39.8619 106.363 39.8781Z" fill="#263238"/>
<path d="M99.9459 41.098C99.8954 41.1172 99.8397 41.1172 99.7892 41.098C99.7417 41.0703 99.7066 41.0254 99.6911 40.9726C99.6756 40.9197 99.6809 40.863 99.7059 40.814C99.8554 40.5159 100.075 40.2583 100.345 40.063C100.615 39.8677 100.929 39.7406 101.259 39.6924C101.286 39.6897 101.314 39.6926 101.34 39.7008C101.366 39.709 101.391 39.7224 101.412 39.7402C101.433 39.758 101.45 39.7799 101.462 39.8045C101.475 39.8291 101.482 39.8559 101.484 39.8834C101.488 39.9385 101.47 39.993 101.434 40.0351C101.399 40.0773 101.348 40.1037 101.293 40.1087C101.033 40.1524 100.787 40.2568 100.575 40.4134C100.363 40.57 100.191 40.7743 100.073 41.0099C100.059 41.0326 100.041 41.0523 100.019 41.0674C99.997 41.0826 99.9721 41.093 99.9459 41.098Z" fill="#263238"/>
<path d="M122.217 61.668C123.216 64.111 124.078 66.6078 124.798 69.1468C125.562 71.7079 126.106 74.3296 126.424 76.9832C126.508 77.6591 126.532 78.3692 126.561 79.0696V79.4663C126.561 79.6084 126.537 79.7553 126.517 79.8826C126.477 80.1274 126.421 80.3695 126.351 80.6075C126.223 81.0148 126.059 81.4099 125.861 81.7879C125.182 83.0435 124.35 84.21 123.383 85.2604C121.595 87.2242 119.627 89.0165 117.506 90.6136L116.09 89.0414C117.721 87.1362 119.367 85.182 120.763 83.1641C121.437 82.2484 122.012 81.2633 122.477 80.2255C122.557 80.0247 122.622 79.8184 122.673 79.6084C122.686 79.5372 122.694 79.4652 122.697 79.3929C122.7 79.3717 122.7 79.3503 122.697 79.3292V79.2606C122.633 78.6827 122.589 78.1048 122.482 77.5121C122.06 75.0927 121.473 72.7051 120.723 70.3663C119.974 67.9958 119.136 65.5911 118.274 63.2989L122.217 61.668Z" fill="#FFC3BD"/>
<path d="M120.38 56.8925C122.183 57.4411 124.347 63.6465 124.347 63.6465L117.348 68.6422C117.348 68.6422 114.797 63.4653 115.556 61.134C116.369 58.7096 118.328 56.2656 120.38 56.8925Z" fill="#407BFF"/>
<path opacity="0.4" d="M120.38 56.8925C122.183 57.4411 124.347 63.6465 124.347 63.6465L117.348 68.6422C117.348 68.6422 114.797 63.4653 115.556 61.134C116.369 58.7096 118.328 56.2656 120.38 56.8925Z" fill="black"/>
<path d="M139.082 165.095C138.992 165.093 138.903 165.07 138.822 165.029C138.742 164.987 138.672 164.928 138.617 164.855C138.573 164.81 138.541 164.753 138.526 164.691C138.51 164.629 138.511 164.564 138.529 164.503C138.696 163.964 140.233 163.523 140.41 163.474C140.429 163.467 140.45 163.467 140.469 163.473C140.489 163.479 140.506 163.492 140.518 163.509C140.528 163.525 140.534 163.545 140.534 163.565C140.534 163.585 140.528 163.604 140.518 163.621C140.243 164.145 139.7 165.027 139.141 165.09L139.082 165.095ZM140.219 163.748C139.611 163.944 138.818 164.282 138.749 164.566C138.742 164.593 138.742 164.622 138.75 164.649C138.758 164.675 138.773 164.699 138.794 164.718C138.833 164.774 138.886 164.819 138.948 164.848C139.01 164.878 139.078 164.89 139.146 164.885C139.43 164.85 139.827 164.429 140.219 163.748Z" fill="#407BFF"/>
<path d="M139.734 163.767C139.276 163.814 138.817 163.684 138.451 163.405C138.4 163.34 138.372 163.26 138.372 163.177C138.372 163.094 138.4 163.014 138.451 162.949C138.495 162.881 138.553 162.824 138.622 162.782C138.69 162.739 138.768 162.713 138.848 162.704C139.485 162.626 140.449 163.459 140.489 163.493C140.503 163.504 140.514 163.52 140.52 163.537C140.526 163.554 140.527 163.573 140.523 163.591C140.521 163.61 140.513 163.628 140.501 163.643C140.489 163.658 140.473 163.668 140.454 163.674C140.22 163.741 139.978 163.772 139.734 163.767ZM138.956 162.91H138.887C138.837 162.916 138.789 162.932 138.745 162.959C138.702 162.985 138.665 163.02 138.637 163.062C138.564 163.175 138.588 163.233 138.637 163.273C138.828 163.522 139.7 163.615 140.229 163.517C139.867 163.204 139.427 162.994 138.956 162.91Z" fill="#407BFF"/>
<path d="M98.3599 175.311C97.9815 175.345 97.6027 175.248 97.2873 175.036C97.2199 174.975 97.1676 174.899 97.1345 174.814C97.1014 174.729 97.0883 174.637 97.0963 174.547C97.1003 174.488 97.119 174.432 97.1507 174.384C97.1824 174.335 97.2261 174.295 97.2775 174.267C97.8211 173.969 99.5843 174.87 99.7851 174.978C99.8038 174.988 99.8189 175.004 99.8285 175.023C99.8381 175.042 99.8418 175.064 99.839 175.085C99.8363 175.107 99.8267 175.127 99.8118 175.143C99.7968 175.159 99.7772 175.169 99.7557 175.173C99.2956 175.262 98.8284 175.308 98.3599 175.311ZM97.5714 174.395C97.5037 174.39 97.4362 174.404 97.3754 174.434C97.3545 174.444 97.3369 174.46 97.3247 174.48C97.3126 174.5 97.3064 174.523 97.3069 174.547C97.2988 174.608 97.3058 174.67 97.3271 174.728C97.3484 174.786 97.3835 174.838 97.4293 174.88C97.6987 175.124 98.4089 175.164 99.3884 175.002C98.8218 174.697 98.2073 174.492 97.5714 174.395Z" fill="#407BFF"/>
<path d="M99.7361 175.167H99.692C99.1631 174.927 98.1198 173.972 98.2227 173.473C98.2227 173.355 98.3255 173.203 98.6145 173.174C98.7189 173.163 98.8244 173.174 98.9246 173.205C99.0247 173.236 99.1176 173.287 99.1974 173.355C99.7508 173.821 99.8537 175.011 99.8586 175.065C99.86 175.083 99.8567 175.101 99.849 175.117C99.8413 175.133 99.8294 175.147 99.8145 175.158C99.8029 175.165 99.7899 175.17 99.7764 175.171C99.7629 175.173 99.7491 175.172 99.7361 175.167ZM98.6782 173.37H98.6194C98.4235 173.37 98.4137 173.468 98.4088 173.492C98.3598 173.791 99.07 174.545 99.6088 174.869C99.5648 174.366 99.3664 173.888 99.0406 173.502C98.9415 173.411 98.8128 173.359 98.6782 173.355V173.37Z" fill="#407BFF"/>
<path d="M117.46 82.6744L117.921 84.2858C117.984 84.4082 117.838 84.5356 117.627 84.5356H99.1184C98.9567 84.5356 98.8196 84.4572 98.8098 84.3543L98.6482 82.7479C98.6482 82.6352 98.7755 82.5422 98.9568 82.5422H117.171C117.227 82.5375 117.283 82.5472 117.333 82.5703C117.384 82.5935 117.428 82.6294 117.46 82.6744Z" fill="#407BFF"/>
<path opacity="0.3" d="M117.46 82.6744L117.921 84.2858C117.984 84.4082 117.838 84.5356 117.627 84.5356H99.1184C98.9567 84.5356 98.8196 84.4572 98.8098 84.3543L98.6482 82.7479C98.6482 82.6352 98.7755 82.5422 98.9568 82.5422H117.171C117.227 82.5375 117.283 82.5472 117.333 82.5703C117.384 82.5935 117.428 82.6294 117.46 82.6744Z" fill="white"/>
<path d="M115.017 84.7307H115.506C115.599 84.7307 115.673 84.6817 115.668 84.618L115.438 82.5267C115.438 82.4679 115.35 82.4141 115.252 82.4141H114.762C114.664 82.4141 114.59 82.4679 114.6 82.5267L114.826 84.618C114.835 84.6817 114.899 84.7307 115.017 84.7307Z" fill="#263238"/>
<path d="M100.49 84.7307H100.98C101.078 84.7307 101.151 84.6817 101.146 84.618L100.916 82.5267C100.916 82.4679 100.823 82.4141 100.73 82.4141H100.24C100.142 82.4141 100.069 82.4679 100.074 82.5267L100.304 84.618C100.309 84.6817 100.392 84.7307 100.49 84.7307Z" fill="#263238"/>
<path d="M107.753 84.7307H108.243C108.341 84.7307 108.414 84.6817 108.409 84.618L108.179 82.5267C108.179 82.4679 108.091 82.4141 107.993 82.4141H107.503C107.405 82.4141 107.332 82.4679 107.342 82.5267L107.552 84.6327C107.552 84.6817 107.655 84.7307 107.753 84.7307Z" fill="#263238"/>
<path d="M105.554 41.8032L104.678 41.6367C104.678 41.6367 105.177 42.2636 105.554 41.8032Z" fill="#263238"/>
<path opacity="0.2" d="M64.2118 89.8327C55.9139 93.0563 46.8466 93.7471 38.1562 91.8175C29.4658 89.888 21.5428 85.4248 15.3889 78.9924C9.23508 72.5601 5.1268 64.4473 3.5836 55.6801C2.0404 46.9129 3.13159 37.8849 6.71917 29.7379C10.3068 21.5908 16.2296 14.6905 23.7388 9.90951C31.248 5.12854 40.0062 2.68162 48.9061 2.87816C57.8059 3.07471 66.4476 5.90589 73.7384 11.0137C81.0292 16.1215 86.6417 23.2766 89.8661 31.5741C92.0079 37.0838 93.0432 42.9615 92.913 48.8714C92.7828 54.7813 91.4896 60.6077 89.1073 66.0177C86.725 71.4278 83.3002 76.3155 79.0285 80.4017C74.7569 84.4879 69.7221 87.6926 64.2118 89.8327Z" fill="#407BFF"/>
<path opacity="0.1" d="M56.0673 3.61219L20.7644 83.7881C20.2208 83.3767 19.682 82.9506 19.1531 82.5196C15.741 79.6969 12.7696 76.3805 10.3372 72.6801L40.8305 3.42608C45.8824 2.6124 51.0368 2.67536 56.0673 3.61219Z" fill="white"/>
<path opacity="0.1" d="M81.1632 17.5215L47.9712 92.9026C41.0769 92.9099 34.2732 91.3314 28.0864 88.2889L64.3297 5.97266C70.7505 8.48376 76.5094 12.4348 81.1632 17.5215Z" fill="white"/>
<path d="M10.8551 17.5559C16.8527 10.2275 24.8887 4.84206 33.947 2.08074C43.0052 -0.680573 52.6789 -0.693801 61.7447 2.04274C70.8105 4.77927 78.8612 10.1427 84.8788 17.4547C90.8964 24.7667 94.6106 33.6989 95.5518 43.1219C96.4929 52.5448 94.6187 62.0352 90.1661 70.3929C85.7135 78.7506 78.8826 85.6003 70.5371 90.0759C62.1917 94.5514 52.7065 96.4517 43.281 95.5364C33.8555 94.6212 24.9131 90.9316 17.5846 84.9341C7.75834 76.8909 1.52923 65.274 0.26724 52.6385C-0.994748 40.003 2.81375 27.3837 10.8551 17.5559ZM81.9311 75.7214C87.4364 68.9919 90.8226 60.7809 91.6615 52.1269C92.5004 43.4729 90.7544 34.7644 86.6442 27.1027C82.5339 19.441 76.2441 13.1701 68.57 9.08302C60.896 4.99591 52.1823 3.27613 43.5308 4.14113C34.8794 5.00614 26.6787 8.41709 19.9657 13.9427C13.2528 19.4683 8.32902 26.8603 5.81709 35.1841C3.30516 43.508 3.31785 52.3897 5.85356 60.7063C8.38927 69.0229 13.3341 76.4009 20.0628 81.9073C24.5311 85.5639 29.676 88.3045 35.2035 89.9725C40.7311 91.6406 46.5331 92.2035 52.2782 91.6291C58.0234 91.0547 63.5991 89.3542 68.6869 86.6247C73.7748 83.8953 78.2752 80.1903 81.9311 75.7214Z" fill="#407BFF"/>
<path d="M86.1588 75.5547C90.8753 78.3709 95.3617 81.4663 99.7696 84.6596C104.178 87.8529 108.473 91.1785 112.7 94.5922C116.926 98.0059 121.075 101.518 125.076 105.206C127.081 107.047 129.04 108.938 130.954 110.877C132.873 112.836 134.759 114.795 136.537 116.921C136.948 117.413 137.174 118.033 137.177 118.674C137.181 119.315 136.96 119.937 136.555 120.433C136.149 120.93 135.583 121.269 134.954 121.393C134.325 121.517 133.672 121.418 133.109 121.113C130.66 119.791 128.368 118.332 126.08 116.838C123.793 115.344 121.56 113.786 119.356 112.185C114.948 108.992 110.682 105.627 106.504 102.154C102.326 98.6818 98.2121 95.131 94.2107 91.4381C90.2092 87.7452 86.2861 83.9641 82.5933 79.899C82.1321 79.3962 81.8677 78.744 81.8485 78.0621C81.8293 77.3801 82.0566 76.7141 82.4887 76.1861C82.9209 75.6582 83.5288 75.3037 84.2011 75.1878C84.8734 75.0718 85.565 75.2021 86.149 75.5547H86.1588Z" fill="#407BFF"/>
<path d="M116.561 88.5527L111.829 89.2727L115.214 92.2407C115.214 92.2407 117.888 91.2612 118.152 89.449L116.561 88.5527Z" fill="#FFC3BD"/>
<path d="M109.271 91.9897L112.244 94.321L115.873 91.9505L111.828 89.2812L109.271 91.9897Z" fill="#FFC3BD"/>
</svg>
