
<svg width="148" height="73" viewBox="0 0 148 73" fill="none" xmlns="http://www.w3.org/2000/svg">
<path fill-rule="evenodd" clip-rule="evenodd" d="M105.851 60.1419H107.004C106.773 58.9017 106.312 57.9715 105.467 57.3127C104.622 56.6538 103.623 56.3438 102.393 56.3438C100.703 56.3438 99.4347 56.8088 98.4742 57.7778C97.4368 58.8242 96.8989 60.452 96.8989 62.6224C96.8989 64.4827 97.2831 65.9167 98.09 67.0406C99.0121 68.2809 100.28 68.901 102.009 68.901C104.737 68.901 106.466 67.467 107.119 64.6377H105.966C105.736 65.6454 105.313 66.4205 104.698 67.0019C104.045 67.622 103.238 67.932 102.239 67.932C100.741 67.932 99.6268 67.3894 98.9352 66.2655C98.3205 65.3353 98.0515 64.0951 98.0515 62.5836C98.0515 61.0721 98.3973 59.8319 99.0121 58.9017C99.7421 57.8165 100.779 57.3127 102.124 57.3127C104.161 57.3127 105.428 58.2816 105.851 60.1419ZM5.26374 62.4286L1.80581 56.6926V56.6538H0.537903L4.76426 63.475V68.5909H5.87848V63.3975L10.1433 56.6926H8.83694L5.26374 62.4286ZM12.1028 67.6607C12.8712 68.4359 13.7933 68.8234 14.9075 68.8234C16.0602 68.8622 17.0207 68.4359 17.7507 67.5832C18.4807 66.7693 18.8265 65.6454 18.8265 64.2889C18.8265 62.9712 18.5191 61.886 17.866 61.0721C17.1744 60.2194 16.1754 59.7544 14.9075 59.7544C13.6396 59.7544 12.6791 60.2194 11.9491 61.1108C11.2959 61.9247 10.9501 62.9712 10.9501 64.2889C10.9501 65.7229 11.3343 66.8469 12.1028 67.6607ZM17.0975 61.731C17.5586 62.3511 17.7891 63.2037 17.7891 64.2889C17.7891 65.2966 17.5586 66.1492 17.0591 66.8081C16.5597 67.5832 15.8296 67.932 14.8691 67.932C13.947 67.932 13.2554 67.622 12.7559 66.9631C12.2564 66.3043 11.9875 65.4128 11.9875 64.3277C11.9875 63.2812 12.2564 62.4673 12.6791 61.8085C13.217 61.0721 13.947 60.6845 14.9075 60.6845C15.8681 60.6845 16.5981 61.0333 17.0975 61.731ZM26.3955 64.6765V59.9869H27.3945V68.5909H26.3955V67.3894C26.0113 67.8545 25.704 68.1646 25.3966 68.3196C24.8971 68.6684 24.3208 68.8234 23.6676 68.8234C21.6313 68.8234 20.6323 67.777 20.6323 65.6454V59.9869H21.6313V65.6066C21.6313 67.1181 22.3613 67.8545 23.8213 67.8545C24.6282 67.8545 25.2429 67.5445 25.704 66.9631C26.165 66.4205 26.3955 65.6454 26.3955 64.6765ZM30.814 68.5909V64.3664C30.814 62.0022 31.7361 60.8395 33.6188 60.8783V59.7931C32.8888 59.7931 32.3124 59.9481 31.8898 60.2194C31.4672 60.4907 31.1214 60.9946 30.8524 61.6534H30.814V60.0256H29.815V68.5909H30.814ZM41.0341 68.5909H39.9583V56.6926H41.0725V61.8085H48.0268V56.6926H49.141V68.5909H48.0268V62.7386H41.0341V68.5909ZM57.4016 59.9869V64.6765C57.4016 65.6454 57.1711 66.4205 56.7101 66.9631C56.2106 67.5445 55.5958 67.8545 54.789 67.8545C53.329 67.8545 52.599 67.1181 52.599 65.6066V59.9869H51.6384V65.6454C51.6384 67.777 52.599 68.8234 54.6353 68.8234C55.2885 68.8234 55.9032 68.6684 56.4027 68.3196C56.6716 68.1646 57.0174 67.8545 57.4016 67.3894V68.5909H58.4006V59.9869H57.4016ZM61.628 63.9788V68.5909H60.6675V60.0256H61.628V61.3434H61.6664C62.2043 60.3357 63.088 59.8319 64.3175 59.8319C65.0475 59.8319 65.6238 59.9869 66.008 60.3357C66.3154 60.607 66.5844 60.9946 66.7765 61.4984C67.3144 60.4132 68.2365 59.8319 69.5428 59.8319C70.5802 59.8319 71.3102 60.1807 71.7328 60.8783C72.0402 61.4209 72.1939 62.196 72.1939 63.2425V68.6684H71.1949V62.7386C71.1949 61.4209 70.5802 60.762 69.3507 60.762C68.5439 60.762 67.9291 61.1108 67.4296 61.7309C67.0454 62.2348 66.8533 63.0099 66.8533 64.0564V68.5909H65.8544V62.6611C65.8544 61.3434 65.2396 60.6845 64.0486 60.6845C63.2801 60.6845 62.627 61.0333 62.1275 61.6534C61.8201 62.1573 61.628 62.9324 61.628 63.9788ZM78.3798 63.5913L76.9966 63.7851C75.0371 64.0564 74.0381 64.909 74.0381 66.343C74.0381 67.1181 74.3455 67.7383 74.8834 68.2033C75.4213 68.6297 76.0745 68.8234 76.8813 68.8234C78.1492 68.8234 79.1866 68.3584 80.0319 67.3894C80.0703 67.8933 80.1471 68.2421 80.3393 68.4359C80.5314 68.6297 80.8387 68.7459 81.2998 68.7459C81.4919 68.7459 81.7608 68.7072 82.0682 68.5909V67.8158C81.8377 67.8933 81.6456 67.932 81.4919 67.932C81.1845 67.932 81.0308 67.6607 81.0308 67.1181V62.4673C81.0308 60.6845 80.0319 59.7931 77.9571 59.7931C76.9582 59.7931 76.1897 60.0256 75.575 60.452C74.8834 60.9171 74.5376 61.6534 74.4608 62.6224H75.4597C75.6134 61.3434 76.4203 60.6845 77.9187 60.6845C79.3403 60.6845 80.0319 61.2659 80.0319 62.4286C80.0319 62.8937 79.9166 63.2037 79.6861 63.32C79.4556 63.3975 78.9945 63.5138 78.3798 63.5913ZM80.0319 64.0951V65.4128C80.0319 66.2655 79.6861 66.8856 79.1098 67.3119C78.5334 67.6995 77.8034 67.8933 76.9582 67.8933C76.4587 67.8933 76.036 67.777 75.6903 67.5445C75.306 67.2732 75.1139 66.8856 75.1139 66.3818C75.1139 65.2966 75.9208 64.6765 77.4961 64.5602C78.6487 64.4827 79.494 64.3277 80.0319 64.0951ZM84.5656 63.9788V68.5909H83.6051V60.0256H84.5656V61.2271C85.4493 60.2582 86.3714 59.7931 87.332 59.7931C88.4846 59.7931 89.3683 60.1807 89.9062 61.0333C90.2136 61.4597 90.3672 62.1185 90.3672 63.0099V68.5909H89.3683V63.0099C89.3683 61.4597 88.6383 60.6845 87.1783 60.6845C86.602 60.6845 86.1025 60.8783 85.6414 61.1884C85.2572 61.4984 84.9883 61.886 84.7962 62.3511C84.6425 62.7386 84.5656 63.32 84.5656 63.9788ZM111.653 63.7851L113.036 63.5913C113.651 63.5138 114.112 63.3975 114.342 63.32C114.573 63.2037 114.688 62.8937 114.688 62.4286C114.688 61.2659 113.958 60.6845 112.575 60.6845C111.076 60.6845 110.231 61.3434 110.116 62.6224H109.117C109.194 61.6534 109.54 60.9171 110.231 60.452C110.807 60.0256 111.614 59.7931 112.613 59.7931C114.688 59.7931 115.687 60.6845 115.687 62.4673V67.1181C115.687 67.6607 115.841 67.932 116.148 67.932C116.302 67.932 116.494 67.8933 116.724 67.8158V68.5909C116.379 68.7072 116.148 68.7459 115.956 68.7459C115.495 68.7459 115.188 68.6297 114.995 68.4359C114.803 68.2421 114.726 67.8933 114.688 67.3894C113.881 68.3584 112.805 68.8234 111.537 68.8234C110.731 68.8234 110.077 68.6297 109.54 68.2033C108.963 67.7383 108.694 67.1181 108.694 66.343C108.694 64.909 109.693 64.0564 111.653 63.7851ZM114.688 65.4128V64.0951C114.112 64.3277 113.266 64.4827 112.152 64.5602C110.577 64.6765 109.77 65.2966 109.77 66.3818C109.77 66.8856 109.962 67.2732 110.346 67.5445C110.692 67.777 111.115 67.8933 111.576 67.8933C112.46 67.8933 113.151 67.6995 113.727 67.3119C114.381 66.8856 114.688 66.2655 114.688 65.4128ZM119.375 72.0015V67.2344C119.644 67.7383 120.105 68.1258 120.682 68.4359C121.22 68.7072 121.796 68.8622 122.411 68.8622C123.64 68.8622 124.601 68.4359 125.292 67.5057C125.907 66.6531 126.214 65.6066 126.214 64.3277C126.214 62.9324 125.907 61.886 125.331 61.1108C124.639 60.2582 123.679 59.7931 122.372 59.7931C121.796 59.7931 121.22 59.9481 120.682 60.2582C120.105 60.5682 119.683 60.9946 119.414 61.5372H119.375V60.0256H118.376V72.0015H119.375ZM120.144 66.8468C119.606 66.1492 119.375 65.3353 119.375 64.3277C119.375 63.2812 119.606 62.4286 120.105 61.7309C120.643 61.0333 121.373 60.6845 122.257 60.6845C123.102 60.6845 123.794 60.9558 124.332 61.5759C124.831 62.196 125.139 63.0099 125.139 64.0564C125.177 65.1803 124.947 66.0717 124.485 66.7693C123.986 67.5832 123.218 67.932 122.257 67.932C121.412 67.932 120.682 67.5832 120.144 66.8468ZM129.48 58.1653H128.404V56.6926H129.48V58.1653ZM129.403 68.5909H128.443V60.0256H129.403V68.5909ZM134.936 68.6297V67.8158C134.629 67.8933 134.36 67.932 134.091 67.932C133.745 67.932 133.476 67.8545 133.361 67.6607C133.284 67.5057 133.246 67.1957 133.246 66.7306V60.8395H134.859V60.0256H133.246V57.6615H132.247V60.0256H131.056V60.8395H132.247V67.1181C132.247 68.2421 132.785 68.8234 133.783 68.8234C133.917 68.8234 134.224 68.765 134.705 68.6734L134.936 68.6297ZM139.047 63.7851L140.392 63.5913C141.045 63.5138 141.468 63.3975 141.698 63.32C141.929 63.2037 142.044 62.8937 142.044 62.4286C142.044 61.2659 141.352 60.6845 139.931 60.6845C138.432 60.6845 137.626 61.3434 137.434 62.6224H136.435C136.511 61.6534 136.857 60.9171 137.549 60.452C138.125 60.0256 138.932 59.7931 139.931 59.7931C142.006 59.7931 143.005 60.6845 143.005 62.4673V67.1181C143.005 67.6607 143.158 67.932 143.466 67.932C143.619 67.932 143.811 67.8933 144.08 67.8158V68.5909C143.735 68.7072 143.504 68.7459 143.312 68.7459C142.851 68.7459 142.544 68.6297 142.351 68.4359C142.159 68.2421 142.083 67.8933 142.044 67.3894C141.199 68.3584 140.161 68.8234 138.855 68.8234C138.087 68.8234 137.395 68.6297 136.896 68.2033C136.319 67.7383 136.05 67.1181 136.05 66.343C136.089 64.909 137.049 64.0564 139.047 63.7851ZM142.044 65.4128V64.0951C141.506 64.3277 140.661 64.4827 139.508 64.5602C137.933 64.6765 137.126 65.2966 137.126 66.3818C137.126 66.8856 137.318 67.2732 137.702 67.5445C138.048 67.777 138.471 67.8933 138.97 67.8933C139.816 67.8933 140.546 67.6995 141.084 67.3119C141.737 66.8856 142.044 66.2655 142.044 65.4128ZM145.771 68.5909H146.77V56.6926H145.771V68.5909Z" fill="#58595B"/>
<path fill-rule="evenodd" clip-rule="evenodd" d="M42.1099 28.3211V43.0099C42.1099 50.2187 49.2947 49.4048 49.2947 49.4048V28.0885C49.2947 23.0889 47.8731 18.9807 45.0299 15.8801C42.4173 13.0509 38.2293 11.3456 33.8109 11.3456C32.8887 11.3456 31.1214 11.3844 30.084 11.5781C26.5492 12.3145 24.0134 13.7485 21.8618 16.1127V6.26846C21.8618 -0.78528 14.6385 0.0286134 14.6385 0.0286134V42.6223C14.6385 50.6062 21.8618 49.4048 21.8618 49.4048V28.8637C21.8618 17.5467 31.8898 17.5467 32.6198 17.5467C34.7714 17.5079 42.1099 18.128 42.1099 28.3211ZM59.7069 45.9554C63.088 48.6296 67.1607 49.9861 71.7712 49.9861L72.2707 49.9474C75.8823 49.9086 79.2634 48.9009 82.2987 47.0406C85.334 45.1803 87.7546 42.6611 89.5988 39.5218L90.4441 38.049C90.4441 38.049 85.4877 34.9097 81.2229 39.0567C78.5334 41.6534 75.4597 43.0487 71.9633 43.0487C68.5438 43.0487 65.4701 41.8084 63.3185 39.5993C61.0901 37.2739 59.9759 34.3284 59.9759 30.8403C59.9759 30.0264 60.0143 29.2512 60.1295 28.4373C60.5522 25.7631 61.628 23.5152 63.3185 21.6937C64.8938 19.9884 67.2759 18.7094 69.8886 18.2056C70.657 18.0505 71.4639 18.0118 72.386 18.0118H72.5781C75.7286 18.0118 78.495 19.0194 80.5697 21.1898C84.604 25.4531 89.7141 22.0037 89.7141 22.0037L88.8688 20.4922C87.2935 17.6242 84.9882 15.3376 81.9913 13.6323C79.0329 11.9657 75.8439 11.1518 72.5012 11.1518C71.0797 11.1518 69.6196 11.3068 68.198 11.5781C63.5106 12.5858 59.7069 14.9112 56.8637 18.5544C54.0205 22.1975 52.6374 26.4995 52.791 31.3054C52.8295 32.7006 52.9447 33.9408 53.1368 35.026C53.9821 39.483 56.2106 43.1649 59.7069 45.9554ZM140.661 43.1262V26.577C140.661 21.4224 138.548 18.6706 134.014 17.818C133.553 17.7405 133.092 17.7017 132.592 17.7017H132.4C131.939 17.7017 131.44 17.7405 131.017 17.818C126.599 18.6319 124.639 21.2286 124.524 26.267V49.366C124.524 49.366 117.147 50.1024 117.147 43.1649V26.267C117.07 21.3061 114.995 18.6319 110.654 17.818C110.193 17.7405 109.732 17.7017 109.232 17.7017H109.04C108.579 17.7017 108.118 17.7405 107.657 17.818C103.123 18.6319 101.01 21.4224 101.01 26.577V49.4048C101.01 49.4048 93.6715 50.2574 93.6715 43.1262V25.7244C93.6715 21.7712 94.7857 18.4381 96.9373 15.8801C99.0889 13.3222 102.163 11.7332 106.005 11.1906C106.466 11.1131 107.964 10.9968 109.232 10.9968C110.615 10.9968 111.922 11.1518 112.037 11.1906C115.725 11.6944 118.684 13.1672 120.797 15.4926C122.949 13.1284 125.869 11.6557 129.519 11.1906C129.941 11.1131 131.248 10.9968 132.516 10.9968C133.745 10.9968 135.282 11.1131 135.666 11.1906C139.547 11.7332 142.62 13.2834 144.772 15.8801C146.924 18.4381 147.999 21.7712 147.999 25.7244V49.4048C148.076 49.4048 140.661 49.9474 140.661 43.1262ZM7.95321 11.8107C7.95321 11.8107 7.99163 35.4523 7.99163 42.8936C7.99163 50.3349 0.72998 49.366 0.72998 49.366V19.0194C0.72998 10.9193 7.95321 11.8107 7.95321 11.8107Z" fill="#0072BC"/>
<path d="M0 4.60217C0 7.04385 1.95949 8.98169 4.34162 8.98169C6.76217 8.98169 8.72167 7.04385 8.72167 4.60217C8.72167 2.1605 6.76217 0.222656 4.34162 0.222656C1.95949 0.222656 0 2.1605 0 4.60217Z" fill="#F7941D"/>
</svg>
