<svg width="30" height="32" viewBox="0 0 30 32" fill="none" xmlns="http://www.w3.org/2000/svg">
<path d="M6.4451 0C5.28398 0 4.33398 0.9 4.33398 2V30C4.33398 31.1 5.28398 32 6.4451 32H27.5562C28.7173 32 29.6673 31.1 29.6673 30V8L20.334 0H6.4451Z" fill="#E2E5E7"/>
<path d="M22.6673 8H29.6673L20.334 0V6C20.334 7.1 21.384 8 22.6673 8Z" fill="#B0B7BD"/>
<path d="M29.6673 13.3333L24.334 8H29.6673V13.3333Z" fill="#CAD1D8"/>
<path d="M25.6673 25.6666C25.6673 26.2166 25.1923 26.6666 24.6118 26.6666H1.38954C0.808984 26.6666 0.333984 26.2166 0.333984 25.6666V15.6666C0.333984 15.1166 0.808984 14.6666 1.38954 14.6666H24.6118C25.1923 14.6666 25.6673 15.1166 25.6673 15.6666V25.6666Z" fill="#FF5722"/>
<path fill-rule="evenodd" clip-rule="evenodd" d="M4.67052 17.3331C4.27492 17.3331 4.0293 17.6732 4.0293 17.985V23.3014C4.0293 23.717 4.35877 23.952 4.67052 23.952C5.01062 23.952 5.27514 23.717 5.27514 23.3014V22.0543H6.85164C8.07977 22.0543 9.18509 21.223 9.18509 19.7303C9.18509 18.155 8.07977 17.3331 6.85164 17.3331H4.67052ZM5.27519 20.8747V18.5224H6.85168C7.48464 18.5224 7.98534 19.0703 7.98534 19.7304C7.98534 20.3162 7.48464 20.8747 6.85168 20.8747H5.27519Z" fill="white"/>
<path fill-rule="evenodd" clip-rule="evenodd" d="M10.3828 23.2825C10.3828 23.697 10.7229 23.867 11.0347 23.867H13.2819C17.4174 23.867 17.5119 17.3331 13.1969 17.3331H11.0347C10.7229 17.3331 10.3828 17.5799 10.3828 17.9189V23.2825ZM11.6302 22.7158V18.4859H13.1972C15.8602 18.4859 15.7468 22.7158 13.1972 22.7158H11.6302Z" fill="white"/>
<path d="M18.7296 18.5874V20.1188H20.8028C21.0956 20.1188 21.3884 20.4658 21.3884 20.802C21.3884 21.1201 21.0956 21.3804 20.8028 21.3804H18.7296V23.4034C18.7296 23.7407 18.5272 23.9998 18.2425 23.9998C17.8846 23.9998 17.666 23.7407 17.666 23.4034V17.9308C17.666 17.585 17.8856 17.3331 18.2425 17.3331H21.0966C21.4545 17.3331 21.666 17.585 21.666 17.9308C21.666 18.2392 21.4545 18.5862 21.0966 18.5862L18.7296 18.5874Z" fill="white"/>
<path d="M24.6006 26.6667H4.33398V28H24.6006C25.1873 28 25.6673 27.4 25.6673 26.6667V25.3334C25.6673 26.0667 25.1873 26.6667 24.6006 26.6667Z" fill="#CAD1D8"/>
</svg>
