<svg width="32" height="32" viewBox="0 0 32 32" fill="none" xmlns="http://www.w3.org/2000/svg">
<path d="M22.7225 8.05786C22.385 8.05786 22.1113 8.33149 22.1113 8.66899V12.3357C22.1113 12.6732 22.385 12.9468 22.7225 12.9468H26.3891C26.7266 12.9468 27.0003 12.6732 27.0003 12.3357C27.0002 9.97312 25.085 8.05786 22.7225 8.05786Z" fill="#FF5722"/>
<path d="M22.7235 14.1687C21.7109 14.1687 20.8901 13.3479 20.8901 12.3354V9.34216C18.5565 9.67411 16.9338 11.835 17.2657 14.1687C17.5977 16.5024 19.7586 18.125 22.0923 17.7931C23.9721 17.5256 25.4492 16.0486 25.7167 14.1687H22.7235Z" fill="#FF5722"/>
<path d="M18.2153 2.07884C18.0703 1.96105 17.8794 1.91602 17.6971 1.95664L1.80827 5.62331C1.52863 5.68759 1.33132 5.93772 1.33401 6.22464V27.0024C1.33413 27.304 1.55418 27.5604 1.85221 27.6062L17.7411 30.0507C18.0747 30.102 18.3867 29.8732 18.438 29.5396C18.4427 29.509 18.4451 29.478 18.4451 29.447V2.55797C18.4457 2.3716 18.361 2.1952 18.2153 2.07884Z" fill="#FF5722"/>
<path d="M30.0561 27.6134H17.8338C17.4963 27.6134 17.2227 27.3398 17.2227 27.0023C17.2227 26.6648 17.4963 26.3912 17.8338 26.3912H29.4449V5.61344H17.8338C17.4963 5.61344 17.2227 5.33981 17.2227 5.00231C17.2227 4.6648 17.4963 4.39124 17.8338 4.39124H30.056C30.3935 4.39124 30.6671 4.66486 30.6671 5.00237V27.0024C30.6671 27.3399 30.3936 27.6134 30.0561 27.6134Z" fill="#FF5722"/>
<path d="M26.3894 23.9469H17.8338C17.4963 23.9469 17.2227 23.6732 17.2227 23.3357C17.2227 22.9982 17.4963 22.7246 17.8338 22.7246H26.3893C26.7268 22.7246 27.0005 22.9982 27.0005 23.3357C27.0005 23.6733 26.7269 23.9469 26.3894 23.9469Z" fill="#FF5722"/>
<path d="M26.3894 20.2801H17.8338C17.4963 20.2801 17.2227 20.0065 17.2227 19.669C17.2227 19.3315 17.4963 19.0579 17.8338 19.0579H26.3893C26.7268 19.0579 27.0005 19.3315 27.0005 19.669C27.0005 20.0066 26.7269 20.2801 26.3894 20.2801Z" fill="#FF5722"/>
<path d="M7.19936 21.3333C6.90481 21.3333 6.66602 21.068 6.66602 20.7407V11.2592C6.66602 10.932 6.90481 10.6666 7.19936 10.6666H9.33271C10.8055 10.6666 11.9993 11.9932 11.9993 13.6296V14.8147C11.9993 16.4511 10.8055 17.7776 9.33271 17.7776H7.73271V20.7406C7.73271 21.068 7.49396 21.3333 7.19936 21.3333ZM7.73271 16.5925H9.33271C10.2164 16.5925 10.9327 15.7966 10.9327 14.8148V13.6296C10.9327 12.6478 10.2164 11.8518 9.33271 11.8518H7.73271V16.5925Z" fill="#FAFAFA"/>
</svg>
