<svg width="32" height="32" viewBox="0 0 32 32" fill="none" xmlns="http://www.w3.org/2000/svg">
<path d="M18.2177 2.06083C18.0725 1.94289 17.8814 1.8978 17.6989 1.93847L1.78936 5.6099C1.50935 5.67427 1.31178 5.92473 1.31448 6.21202V27.0168C1.3146 27.3187 1.53494 27.5755 1.83336 27.6214L17.7429 30.069C18.0769 30.1204 18.3893 29.8912 18.4407 29.5573C18.4454 29.5266 18.4478 29.4955 18.4478 29.4645V2.54059C18.4484 2.35397 18.3636 2.17734 18.2177 2.06083Z" fill="#1565C0"/>
<path d="M30.0747 27.6286H17.8365C17.4986 27.6286 17.2246 27.3546 17.2246 27.0167C17.2246 26.6787 17.4986 26.4047 17.8365 26.4047H29.4627V5.60001H17.8365C17.4986 5.60001 17.2246 5.32603 17.2246 4.98809C17.2246 4.65014 17.4986 4.37622 17.8365 4.37622H30.0746C30.4126 4.37622 30.6865 4.6502 30.6865 4.98814V27.0167C30.6865 27.3547 30.4126 27.6286 30.0747 27.6286Z" fill="#1565C0"/>
<path d="M11.5382 21.3333C11.2781 21.3331 11.0496 21.1611 10.9778 20.9117L9.203 14.718L7.42824 20.9117C7.30006 21.2208 6.94496 21.3677 6.63508 21.2398C6.4861 21.1783 6.36777 21.0603 6.30614 20.9117L3.97099 12.759C3.87324 12.4525 4.04312 12.1251 4.35038 12.0276C4.65764 11.9301 4.98592 12.0995 5.08367 12.406C5.08712 12.4168 5.09024 12.4277 5.09308 12.4387L6.86779 18.6313L8.64256 12.4376C8.77074 12.1285 9.12583 11.9816 9.43572 12.1094C9.5847 12.1709 9.70303 12.289 9.76465 12.4376L11.5382 18.6313L13.313 12.4388C13.397 12.1323 13.7142 11.9517 14.0215 12.0355C14.0258 12.0367 14.0302 12.038 14.0346 12.0392C14.3443 12.1278 14.5236 12.45 14.435 12.759L12.0998 20.9117C12.0279 21.1615 11.7987 21.3336 11.5382 21.3333Z" fill="#FAFAFA"/>
<path d="M27.627 9.27133H17.8365C17.4986 9.27133 17.2246 8.99735 17.2246 8.65941C17.2246 8.32147 17.4986 8.04749 17.8365 8.04749H27.627C27.965 8.04749 28.239 8.32147 28.239 8.65941C28.239 8.99741 27.965 9.27133 27.627 9.27133Z" fill="#1565C0"/>
<path d="M27.627 12.9427H17.8365C17.4986 12.9427 17.2246 12.6687 17.2246 12.3308C17.2246 11.9929 17.4986 11.7189 17.8365 11.7189H27.627C27.965 11.7189 28.239 11.9929 28.239 12.3308C28.239 12.6687 27.965 12.9427 27.627 12.9427Z" fill="#1565C0"/>
<path d="M27.627 16.6142H17.8365C17.4986 16.6142 17.2246 16.3402 17.2246 16.0023C17.2246 15.6644 17.4986 15.3904 17.8365 15.3904H27.627C27.965 15.3904 28.239 15.6644 28.239 16.0023C28.239 16.3403 27.965 16.6142 27.627 16.6142Z" fill="#1565C0"/>
<path d="M27.627 20.2856H17.8365C17.4986 20.2856 17.2246 20.0116 17.2246 19.6737C17.2246 19.3357 17.4986 19.0618 17.8365 19.0618H27.627C27.965 19.0618 28.239 19.3357 28.239 19.6737C28.239 20.0117 27.965 20.2856 27.627 20.2856Z" fill="#1565C0"/>
<path d="M27.627 23.957H17.8365C17.4986 23.957 17.2246 23.683 17.2246 23.3451C17.2246 23.0071 17.4986 22.7332 17.8365 22.7332H27.627C27.965 22.7332 28.239 23.0071 28.239 23.3451C28.239 23.6831 27.965 23.957 27.627 23.957Z" fill="#1565C0"/>
</svg>
